<?xml version="1.0" encoding="iso-8859-1"?>
<!-- Generator: Adobe Illustrator 19.0.0, SVG Export Plug-In . SVG Version: 6.00 Build 0)  -->
<svg version="1.1" id="Layer_1" xmlns="http://www.w3.org/2000/svg" xmlns:xlink="http://www.w3.org/1999/xlink" x="0px" y="0px"
	 viewBox="0 0 512 512" style="enable-background:new 0 0 512 512;" xml:space="preserve" fill="white">
<g>
	<g>
		<g>
			<path d="M266.779,43.116h-1.078c-4.465,0-8.084,3.619-8.084,8.084s3.62,8.084,8.084,8.084h1.078c4.465,0,8.084-3.619,8.084-8.084
				S271.244,43.116,266.779,43.116z"/>
			<path d="M460.8,0H51.2C22.969,0,0,22.969,0,51.2s22.969,51.2,51.2,51.2h5.573l69.953,153.895
				c13.935,30.656,38.07,54.736,67.295,68.946v124.779C194.021,484.197,221.824,512,256,512s61.979-27.803,61.979-61.979V325.242
				c29.225-14.211,53.36-38.289,67.295-68.946L455.227,102.4h5.573c28.231,0,51.2-22.969,51.2-51.2S489.031,0,460.8,0z
				 M301.811,450.021c0,25.26-20.55,45.81-45.811,45.81s-45.811-20.55-45.811-45.81v-118.11c14.526,4.97,29.971,7.626,45.811,7.626
				s31.285-2.656,45.811-7.626V450.021z M370.554,249.605c-20.368,44.81-65.332,73.764-114.554,73.764
				s-94.186-28.953-114.554-73.764L74.533,102.4h362.932L370.554,249.605z M309.895,59.284H494.89
				c-3.658,15.432-17.555,26.947-34.09,26.947h-10.596c-0.119-0.002-0.238-0.002-0.358,0H62.153c-0.119-0.002-0.238-0.002-0.357,0
				H51.2c-19.316,0-35.032-15.715-35.032-35.032S31.884,16.168,51.2,16.168h409.6c16.535,0,30.431,11.515,34.09,26.947H309.895
				c-4.465,0-8.084,3.619-8.084,8.084S305.43,59.284,309.895,59.284z"/>
		</g>
	</g>
</g>
<g>
</g>
<g>
</g>
<g>
</g>
<g>
</g>
<g>
</g>
<g>
</g>
<g>
</g>
<g>
</g>
<g>
</g>
<g>
</g>
<g>
</g>
<g>
</g>
<g>
</g>
<g>
</g>
<g>
</g>
</svg>
